<svg xmlns="http://www.w3.org/2000/svg" viewBox="0 0 410 404"><defs><linearGradient id="vite-a" x1="0" x2="1" y1="0" y2="1"><stop offset="0" stop-color="#41d1ff"/><stop offset="1" stop-color="#bd34fe"/></linearGradient><linearGradient id="vite-b" x1="0" x2="1" y1="0" y2="1"><stop offset="0" stop-color="#ffea83"/><stop offset="0.08" stop-color="#ffdd35"/><stop offset="1" stop-color="#ffa800"/></linearGradient></defs><path fill="url(#vite-a)" d="M398 59L215 388c-3 5-11 5-14-1L10 59c-3-5 2-11 8-10l186 33a9 9 0 003-1l183-57c6-2 11 4 8 10z"/><path fill="url(#vite-b)" d="M292 0L159 28c-4 1-7 5-7 9l-5 164a6 6 0 009 6l37-20a10 10 0 0114 7l11 60a6 6 0 0010 4l23-24a10 10 0 0114-1l40 32a6 6 0 0010-4l1-14 22-222a6 6 0 00-7-7z"/></svg>
